<svg xmlns="http://www.w3.org/2000/svg" id="uuid-7f75229b-3d16-4955-808c-d6fdca5f1b30" viewBox="0 0 16 16"><defs><style>.uuid-94db6b0d-b38a-4614-beab-39b701608511{fill:#fff;}</style></defs><g id="uuid-6178b988-81e3-4bef-9fee-f62cbfd2d047"><rect width="16" height="16" rx="2" ry="2" fill="#89CFF0"/><path class="uuid-94db6b0d-b38a-4614-beab-39b701608511" d="m14.75,4.8c-.33-.35-.87-.35-1.21,0-.05.05-.09.1-.12.15-.1.17-.26.26-.46.26h-.11c-.18,0-.34-.09-.44-.24-.03-.06-.08-.12-.13-.17-.05-.05-.1-.09-.16-.13-.16-.11-.25-.27-.25-.47v-.1c0-.2.09-.37.25-.47.05-.03.1-.08.15-.12.33-.35.33-.91,0-1.25-.33-.35-.87-.35-1.21,0-.05.05-.09.1-.12.15-.1.17-.27.26-.46.26h-.11c-.18,0-.34-.09-.44-.24-.04-.06-.08-.12-.13-.17-.15-.15-.33-.24-.52-.26-.03,0-.06,0-.09,0-.22,0-.44.09-.61.26-.06.06-.11.13-.15.21-.1.13-.25.2-.42.2h-.11c-.19,0-.35-.09-.46-.26-.03-.05-.07-.11-.12-.15-.19-.2-.44-.28-.69-.26-.19.02-.38.1-.52.26-.05.05-.09.1-.12.15-.1.17-.27.26-.46.26h-.11c-.16,0-.29-.06-.39-.18-.04-.09-.09-.17-.16-.24-.17-.17-.39-.26-.61-.26-.22,0-.45.08-.62.26-.07.07-.12.15-.16.24-.1.11-.24.18-.39.18h-.11c-.19,0-.35-.09-.46-.26-.03-.05-.07-.11-.12-.15-.33-.35-.87-.35-1.21,0-.33.35-.33.91,0,1.25.33.35.87.35,1.21,0,.05-.05.09-.1.12-.15.1-.17.27-.26.46-.26h.11c.16,0,.29.06.39.18.04.09.09.17.16.24.07.07.14.13.23.17.12.11.19.26.19.43v.1c0,.2-.09.37-.25.47-.05.03-.1.08-.15.12-.33.35-.33.91,0,1.25.33.35.87.35,1.21,0,.05-.05.09-.1.12-.15.1-.17.27-.26.46-.26h.11c.16,0,.29.06.39.18.02.03.03.07.06.1.03.05.07.1.12.15.05.05.1.09.15.12.16.11.25.28.25.47v.11c0,.2-.09.37-.25.47-.05.03-.1.08-.15.12-.19.2-.27.46-.25.71.02.2.1.39.25.54.05.05.1.09.15.12.16.11.25.28.25.47v.11c0,.2-.09.37-.25.47-.05.03-.1.08-.15.12-.19.2-.27.46-.25.71.02.2.1.39.25.54.05.05.1.09.15.12.16.11.25.28.25.47v.11c0,.2-.09.37-.25.47-.05.03-.1.08-.15.12-.33.35-.33.91,0,1.25.33.35.87.35,1.21,0,.33-.35.33-.91,0-1.25-.05-.05-.1-.09-.15-.12-.16-.11-.25-.28-.25-.47v-.11c0-.2.09-.37.25-.47.05-.03.1-.08.15-.12.05-.05.09-.1.12-.15.1-.17.26-.26.46-.26h.1c.19,0,.35.09.46.26.03.05.07.11.12.15.33.35.87.35,1.21,0,.33-.35.33-.91,0-1.25-.05-.05-.1-.09-.15-.12-.16-.11-.25-.28-.25-.47v-.11c0-.2.09-.37.25-.47.05-.03.1-.08.15-.12.17-.17.25-.4.25-.63,0-.23-.08-.45-.25-.63-.05-.05-.1-.09-.15-.12-.16-.11-.25-.28-.25-.47v-.11c0-.2.09-.37.25-.47.05-.03.1-.08.15-.12.05-.05.09-.11.13-.17.1-.17.26-.26.45-.26h.11c.18,0,.34.09.44.24.04.06.08.12.13.17.17.17.39.26.61.26.22,0,.44-.09.6-.26.05-.05.09-.11.13-.17.1-.15.26-.24.44-.24h.11c.19,0,.35.09.46.26.03.05.07.11.12.15.33.35.87.35,1.21,0,.33-.35.33-.91,0-1.25Zm-8.19-.6c0,.2-.09.37-.25.47-.05.03-.1.08-.15.12-.05.06-.1.12-.13.18h0s0,0,0,0c0,0,0,0,0,0-.01.02-.05.09-.14.14-.08.05-.18.08-.28.08h-.11c-.19,0-.35-.09-.46-.26-.03-.05-.07-.11-.12-.15-.05-.05-.1-.09-.15-.12-.16-.11-.25-.28-.25-.47v-.1c0-.2.09-.37.25-.47.05-.03.1-.08.15-.12.07-.07.12-.15.16-.24.1-.11.24-.18.39-.18h.11c.19,0,.35.09.46.26.03.05.07.11.12.15.05.05.1.09.15.12.16.11.25.27.25.47v.1Zm2.21,5.6c-.05.03-.1.08-.15.12-.05.05-.09.1-.12.15-.1.17-.27.26-.46.26h-.1c-.19,0-.35-.09-.45-.26-.03-.06-.07-.11-.12-.16-.05-.05-.1-.09-.15-.12-.16-.11-.25-.28-.25-.47v-.11c0-.2.09-.37.25-.47.05-.03.1-.08.15-.12.05-.05.09-.1.12-.15.1-.17.26-.26.46-.26h.1c.19,0,.35.09.45.26.03.06.07.11.12.16.05.05.1.09.15.12.16.1.25.27.25.47v.11c0,.2-.09.37-.25.47Zm0-2.56c-.05.03-.1.08-.15.12-.05.05-.09.1-.12.15-.1.17-.27.26-.46.26h-.1c-.19,0-.35-.09-.45-.26-.03-.06-.07-.11-.12-.16-.05-.05-.1-.09-.15-.12-.16-.11-.25-.28-.25-.47v-.11c0-.2.09-.37.25-.47.05-.03.1-.08.15-.12.02-.02.03-.04.05-.06.03-.04.06-.08.09-.13.1-.15.26-.23.43-.23h.1c.19,0,.35.09.45.26.03.06.07.11.12.16.05.05.1.09.15.12.16.1.25.27.25.47v.11c0,.2-.09.37-.25.47Zm.16-2.71c-.04.05-.09.1-.15.14-.05.04-.11.08-.15.13-.05.05-.09.1-.12.15-.1.17-.26.26-.46.26h-.11c-.13,0-.25-.04-.34-.12-.03-.03-.07-.08-.09-.11,0,0,0,0,0-.01,0,0,0,0,0,0,0,0,0,0,0,0-.03-.05-.07-.11-.12-.15-.07-.07-.14-.13-.22-.17-.12-.11-.19-.26-.19-.43v-.1c0-.2.09-.36.25-.47.05-.04.11-.08.15-.13.05-.05.09-.1.12-.15.1-.17.27-.26.46-.26h.11c.17,0,.31.07.42.2.04.08.09.15.15.21.05.05.1.09.15.12.16.1.25.27.25.47v.11c0,.12-.03.23-.09.32Zm2.56-.33c0,.2-.09.37-.25.47-.05.03-.1.08-.15.12-.05.05-.09.11-.13.17-.1.16-.26.25-.44.24h-.11c-.19,0-.35-.09-.46-.26-.03-.05-.07-.11-.12-.15-.05-.05-.1-.09-.15-.12-.16-.11-.25-.28-.25-.47v-.1c0-.2.09-.37.25-.47.05-.03.1-.08.15-.12.05-.05.09-.11.13-.17.1-.15.26-.24.44-.24h.11c.19,0,.35.09.46.26.03.05.07.11.12.15.05.05.1.09.15.12.16.11.25.27.25.47v.1Z"/><ellipse class="uuid-94db6b0d-b38a-4614-beab-39b701608511" cx="1.72" cy="5.42" rx=".48" ry=".5"/><ellipse class="uuid-94db6b0d-b38a-4614-beab-39b701608511" cx="9.15" cy="13.11" rx=".48" ry=".5"/><ellipse class="uuid-94db6b0d-b38a-4614-beab-39b701608511" cx="14.11" cy="2.82" rx=".48" ry=".5"/></g></svg>